# Blender 4.1.0
# www.blender.org
mtllib buildings.mtl
o Buildings
v -92.655334 0.000000 105.350525
v -92.655334 50.000000 105.350525
v -92.655334 0.000000 126.350525
v -92.655334 50.000000 126.350525
v -125.655334 0.000000 105.350525
v -125.655334 50.000000 105.350525
v -125.655334 0.000000 126.350525
v -125.655334 50.000000 126.350525
v -127.655334 0.000000 105.350525
v -127.655334 35.000000 105.350525
v -127.655334 0.000000 126.350525
v -127.655334 35.000000 126.350525
v -148.655334 0.000000 105.350525
v -148.655334 35.000000 105.350525
v -148.655334 0.000000 126.350525
v -148.655334 35.000000 126.350525
v -92.655334 0.000000 82.350525
v -92.655334 25.000000 82.350525
v -92.655334 0.000000 103.350525
v -92.655334 25.000000 103.350525
v -148.655334 0.000000 82.350525
v -148.655334 25.000000 82.350525
v -148.655334 0.000000 103.350525
v -148.655334 25.000000 103.350525
v -92.655334 0.000000 142.350525
v -92.655334 30.000000 142.350525
v -92.655334 0.000000 162.350525
v -92.655334 30.000000 162.350525
v -114.655334 0.000000 142.350525
v -114.655334 30.000000 142.350525
v -114.655334 0.000000 162.350525
v -114.655334 30.000000 162.350525
v -125.655334 30.000000 162.350525
v -125.655334 0.000000 162.350525
v -125.655334 0.000000 142.350525
v -125.655334 30.000000 142.350525
v -92.655334 30.000000 186.350525
v -92.655334 0.000000 186.350525
v -114.655334 0.000000 186.350525
v -114.655334 30.000000 186.350525
v -148.655334 0.000000 186.350525
v -148.655334 40.000015 186.350525
v -148.655334 0.000000 164.350525
v -148.655334 40.000000 164.350525
v -127.655334 0.000000 186.350525
v -127.655334 40.000015 186.350525
v -127.655334 0.000000 164.350525
v -127.655334 40.000000 164.350525
v -116.655334 40.000000 164.350525
v -116.655334 0.000000 164.350525
v -116.655334 0.000000 186.350525
v -116.655334 40.000015 186.350525
v -148.655334 40.000000 142.350525
v -148.655334 0.000000 142.350525
v -127.655334 0.000000 142.350525
v -127.655334 40.000000 142.350525
v -92.655334 0.000000 202.350525
v -92.655334 20.000015 202.350525
v -114.655334 0.000000 202.350525
v -114.655334 20.000015 202.350525
v -92.655334 20.000015 246.350525
v -92.655334 0.000015 246.350525
v -114.655334 0.000015 246.350525
v -114.655334 20.000015 246.350525
v -148.655334 0.000015 246.350525
v -148.655334 20.000015 246.350525
v -127.655334 0.000015 246.350525
v -127.655334 20.000015 246.350525
v -148.655334 20.000015 202.350525
v -148.655334 0.000000 202.350525
v -127.655334 0.000000 202.350525
v -127.655334 20.000015 202.350525
vn -1.0000 -0.0000 -0.0000
vn 1.0000 -0.0000 -0.0000
vn -0.0000 -0.0000 1.0000
vn -0.0000 -0.0000 -1.0000
vn -0.0000 1.0000 -0.0000
vt 4.445802 1.402173
vt 7.455270 -0.000000
vt 7.455270 1.402174
vt 7.898252 5.397272
vt 5.686742 0.000000
vt 7.898252 0.000000
vt 5.686740 5.397272
vt 2.211510 0.000000
vt 2.211509 5.397272
vt 0.000000 0.000000
vt 11.373485 5.397271
vt 11.373485 -0.000002
vt 0.000000 4.000000
vt 4.000000 0.000000
vt 4.000000 4.000000
vt 7.225384 3.085916
vt 5.419037 0.000000
vt 7.225384 -0.000000
vt 5.419037 3.085917
vt 3.612691 0.000000
vt 3.612690 3.085917
vt 1.806346 0.000000
vt 1.806345 3.085916
vt 5.108365 1.700347
vt 3.715289 0.000418
vt 5.108365 0.000418
vt 3.715287 1.700346
vt 0.000418 0.000417
vt 10.216314 1.700347
vt 8.823237 0.000419
vt 10.216314 0.000419
vt 8.823237 1.700347
vt 5.023984 -0.000001
vt 6.593978 2.413924
vt 5.023984 2.413924
vt 2.666666 1.818182
vt 0.000000 1.818182
vt 3.296990 2.413925
vt 2.433492 -0.000001
vt 3.296990 -0.000001
vt 2.666666 0.000000
vt 0.863497 -0.000000
vt 2.433492 2.413925
vt 0.863498 2.413925
vt 4.000000 1.818182
vt 0.000001 2.413926
vt 8.477973 -0.000001
vt 10.204966 2.413925
vt 8.477973 2.413924
vt 6.593978 -0.000001
vt 12.088958 2.413926
vt 10.204967 -0.000000
vt 12.088962 0.000001
vt 9.552040 3.996360
vt 7.407705 0.000002
vt 9.552039 0.000001
vt 1.375002 2.000000
vt 4.000000 2.000000
vt 11.598907 0.000002
vt 12.671073 3.996360
vt 11.598906 3.996360
vt 1.375002 4.000000
vt 14.815411 3.996359
vt 12.671073 0.000000
vt 14.815411 -0.000001
vt 0.000000 2.000000
vt 1.072166 3.996359
vt 1.072168 0.000000
vt 5.263366 3.996359
vt 3.216503 0.000001
vt 5.263368 0.000002
vt 7.407703 3.996360
vt 3.216501 3.996359
vt 2.963263 1.380645
vt 0.000000 1.380646
vt 7.408159 -0.000002
vt 4.444895 1.380644
vt 4.444895 -0.000001
vt 2.963263 -0.000001
vt 8.889790 1.380642
vt 7.408158 1.380645
vt 3.009466 -0.000000
vt -0.000001 1.402171
vt 8.891607 1.402173
vt 8.891607 -0.000000
vt 4.445803 0.000001
vt -0.000003 5.397271
vt -0.000002 3.085915
vt 0.000417 1.700342
vt 2.666666 4.000000
vt 1.375002 0.000000
vt -0.000002 3.996358
vt 8.889790 -0.000002
vt 3.009466 1.402173
s 0
usemtl building
f 69/1/1 65/2/1 66/3/1
f 2/4/2 3/5/2 1/6/2
f 4/7/3 7/8/3 3/5/3
f 8/9/1 5/10/1 7/8/1
f 6/11/4 1/6/4 5/12/4
f 4/13/5 6/14/5 8/15/5
f 10/16/2 11/17/2 9/18/2
f 12/19/3 15/20/3 11/17/3
f 16/21/1 13/22/1 15/20/1
f 14/23/4 9/10/4 13/22/4
f 12/13/5 14/14/5 16/15/5
f 18/24/2 19/25/2 17/26/2
f 20/27/3 23/28/3 19/25/3
f 24/29/1 21/30/1 23/31/1
f 22/32/4 17/26/4 21/30/4
f 20/13/5 22/14/5 24/15/5
f 26/33/2 27/34/2 25/35/2
f 32/36/5 37/13/5 28/37/5
f 29/38/4 36/39/4 30/40/4
f 30/40/4 25/35/4 29/38/4
f 28/37/5 30/41/5 32/36/5
f 33/42/1 35/43/1 34/44/1
f 30/41/5 33/45/5 32/36/5
f 32/10/3 34/44/3 31/46/3
f 37/47/3 39/48/3 38/49/3
f 28/50/2 38/49/2 27/34/2
f 31/51/1 40/52/1 32/53/1
f 42/54/1 43/55/1 41/56/1
f 48/57/5 53/14/5 44/58/5
f 45/59/3 52/60/3 46/61/3
f 46/61/3 41/56/3 45/59/3
f 44/58/5 46/62/5 48/57/5
f 49/63/2 51/64/2 50/65/2
f 46/62/5 49/66/5 48/57/5
f 48/67/4 50/10/4 47/68/4
f 53/69/4 55/70/4 54/71/4
f 44/72/1 54/71/1 43/55/1
f 47/68/2 56/73/2 48/67/2
f 64/10/1 59/74/1 63/75/1
f 61/76/2 57/77/2 58/78/2
f 60/79/4 57/77/4 59/74/4
f 61/76/3 63/80/3 62/81/3
f 64/15/5 58/10/5 60/14/5
f 68/13/5 69/14/5 66/15/5
f 71/82/2 68/83/2 67/10/2
f 68/84/3 65/2/3 67/85/3
f 69/1/4 71/82/4 70/86/4
f 69/1/1 70/86/1 65/2/1
f 2/4/2 4/7/2 3/5/2
f 4/7/3 8/9/3 7/8/3
f 8/9/1 6/87/1 5/10/1
f 6/11/4 2/4/4 1/6/4
f 4/13/5 2/10/5 6/14/5
f 10/16/2 12/19/2 11/17/2
f 12/19/3 16/21/3 15/20/3
f 16/21/1 14/23/1 13/22/1
f 14/23/4 10/88/4 9/10/4
f 12/13/5 10/10/5 14/14/5
f 18/24/2 20/27/2 19/25/2
f 20/27/3 24/89/3 23/28/3
f 24/29/1 22/32/1 21/30/1
f 22/32/4 18/24/4 17/26/4
f 20/13/5 18/10/5 22/14/5
f 26/33/2 28/50/2 27/34/2
f 32/36/5 40/90/5 37/13/5
f 29/38/4 35/43/4 36/39/4
f 30/40/4 26/33/4 25/35/4
f 28/37/5 26/10/5 30/41/5
f 33/42/1 36/39/1 35/43/1
f 30/41/5 36/14/5 33/45/5
f 32/10/3 33/42/3 34/44/3
f 37/47/3 40/52/3 39/48/3
f 28/50/2 37/47/2 38/49/2
f 31/51/1 39/48/1 40/52/1
f 42/54/1 44/72/1 43/55/1
f 48/57/5 56/91/5 53/14/5
f 45/59/3 51/64/3 52/60/3
f 46/61/3 42/54/3 41/56/3
f 44/58/5 42/15/5 46/62/5
f 49/63/2 52/60/2 51/64/2
f 46/62/5 52/13/5 49/66/5
f 48/67/4 49/92/4 50/10/4
f 53/69/4 56/73/4 55/70/4
f 44/72/1 53/69/1 54/71/1
f 47/68/2 55/70/2 56/73/2
f 64/10/1 60/79/1 59/74/1
f 61/76/2 62/81/2 57/77/2
f 60/79/4 58/78/4 57/77/4
f 61/76/3 64/93/3 63/80/3
f 64/15/5 61/13/5 58/10/5
f 68/13/5 72/10/5 69/14/5
f 71/82/2 72/94/2 68/83/2
f 68/84/3 66/3/3 65/2/3
f 69/1/4 72/94/4 71/82/4
