# Blender 4.1.0
# www.blender.org
mtllib terrain.mtl
o Terrain
v 162.000000 0.200005 66.000000
v 126.000000 0.200005 66.000000
v -160.692230 -14.484301 -518.252563
v 210.000000 0.200006 78.000000
v 126.000000 0.200006 78.000000
v 210.000000 0.200023 300.000000
v 126.000000 0.200023 300.000000
v 400.000000 0.200006 78.000000
v 400.000000 0.200023 300.000000
vn -0.0000 1.0000 -0.0000
vt 53.126160 84.452080
vt 2.521298 120.598450
vt 2.521298 84.452080
vt 53.126160 120.598450
s 1
usemtl terrain
f 5/1/1 6/2/1 4/3/1
f 6/2/1 8/3/1 4/3/1
f 5/1/1 7/4/1 6/2/1
f 6/2/1 9/2/1 8/3/1
l 1 2
