# Blender 4.1.0
# www.blender.org
mtllib grass.mtl
o Plane.002
v -69.093643 -0.479490 260.202179
v 113.119446 -0.479490 260.202179
v -69.093643 -0.479490 77.989098
v 113.119446 -0.479490 77.989098
v -69.093643 -0.479490 98.234993
v -69.093643 -0.479490 118.480896
v -69.093643 -0.479490 138.726791
v -69.093643 -0.479490 158.972687
v -69.093643 -0.479490 179.218597
v -69.093643 -0.479490 199.464493
v -69.093643 -0.479490 219.710388
v -69.093643 -0.479490 239.956299
v -48.847752 -0.479490 260.202179
v -28.601852 -0.479490 260.202179
v -8.355951 -0.479490 260.202179
v 11.889949 -0.479490 260.202179
v 32.135849 -0.479490 260.202179
v 52.381744 -0.479490 260.202179
v 72.627647 -0.479490 260.202179
v 92.873550 -0.479490 260.202179
v 113.119446 -0.479490 239.956299
v 113.119446 -0.479490 219.710388
v 113.119446 -0.479490 199.464493
v 113.119446 -0.479490 179.218597
v 113.119446 -0.479490 158.972687
v 113.119446 -0.479490 138.726791
v 113.119446 -0.479490 118.480896
v 113.119446 -0.479490 98.234993
v 92.873550 -0.479490 77.989098
v 72.627647 -0.479490 77.989098
v 52.381744 -0.479490 77.989098
v 32.135845 -0.479490 77.989098
v 11.889946 -0.479490 77.989098
v -8.355951 -0.479490 77.989098
v -28.601852 -0.479490 77.989098
v -48.847752 -0.479490 77.989098
v -48.847752 -0.479490 98.234993
v -28.601852 -0.479490 118.480896
v -8.355951 -0.479490 138.726791
v 11.889949 -0.479490 158.972687
v 32.135849 -0.479490 179.218597
v 52.381744 -0.479490 199.464493
v 72.627647 -0.479490 219.710388
v 92.873550 -0.479490 239.956299
v -28.601852 -0.479490 98.234993
v -8.355951 -0.479490 118.480896
v -8.355951 -0.479490 98.234993
v 11.889948 -0.479490 138.726791
v 11.889947 -0.479490 118.480896
v 11.889947 -0.479490 98.234993
v 32.135849 -0.479490 158.972687
v 32.135849 -0.479490 138.726791
v 32.135849 -0.479490 118.480896
v 32.135845 -0.479490 98.234993
v 52.381744 -0.479490 179.218597
v 52.381744 -0.479490 158.972687
v 52.381744 -0.479490 138.726791
v 52.381744 -0.479490 118.480896
v 52.381744 -0.479490 98.234993
v 72.627647 -0.479490 199.464493
v 72.627647 -0.479490 179.218597
v 72.627647 -0.479490 158.972687
v 72.627647 -0.479490 138.726791
v 72.627647 -0.479490 118.480896
v 72.627647 -0.479490 98.234993
v 92.873550 -0.479490 219.710388
v 92.873550 -0.479490 199.464493
v 92.873550 -0.479490 179.218597
v 92.873550 -0.479490 158.972687
v 92.873550 -0.479490 138.726791
v 92.873550 -0.479490 118.480896
v 92.873550 -0.479490 98.234993
v -48.847752 -0.479490 239.956299
v -28.601852 -0.479490 239.956299
v -48.847752 -0.479490 219.710388
v -8.355949 -0.479490 239.956299
v -28.601852 -0.479490 219.710388
v -48.847752 -0.479490 199.464493
v 11.889949 -0.479490 239.956299
v -8.355949 -0.479490 219.710388
v -28.601852 -0.479490 199.464493
v -48.847752 -0.479490 179.218597
v 32.135845 -0.479490 239.956299
v 11.889946 -0.479490 219.710388
v -8.355951 -0.479490 199.464493
v -28.601852 -0.479490 179.218597
v -48.847752 -0.479490 158.972687
v 52.381744 -0.479490 239.956299
v 32.135845 -0.479490 219.710388
v 11.889946 -0.479490 199.464493
v -8.355951 -0.479490 179.218597
v -28.601852 -0.479490 158.972687
v -48.847752 -0.479490 138.726791
v 72.627647 -0.479490 239.956299
v 52.381744 -0.479490 219.710388
v 32.135845 -0.479490 199.464493
v 11.889946 -0.479490 179.218597
v -8.355951 -0.479490 158.972687
v -28.601852 -0.479490 138.726791
v -48.847752 -0.479490 118.480896
vn -0.0000 1.0000 -0.0000
vt 1.000000 0.000000
vt 0.888889 0.111111
vt 0.888889 0.000000
vt 1.000000 0.111111
vt 0.111111 0.888889
vt 0.111111 1.000000
vt 0.000000 1.000000
vt 0.222222 0.777778
vt 0.222222 0.888889
vt 0.333333 0.666667
vt 0.333333 0.777778
vt 0.444444 0.555556
vt 0.444444 0.666667
vt 0.555556 0.444444
vt 0.555556 0.555556
vt 0.666667 0.333333
vt 0.666667 0.444444
vt 0.777778 0.222222
vt 0.777778 0.333333
vt 0.888889 0.222222
vt 0.222222 1.000000
vt 0.333333 0.888889
vt 0.333333 1.000000
vt 0.444444 0.777778
vt 0.444444 0.888889
vt 0.444444 1.000000
vt 0.555556 0.666667
vt 0.555556 0.777778
vt 0.555556 0.888889
vt 0.555556 1.000000
vt 0.666667 0.555556
vt 0.666667 0.666667
vt 0.666667 0.777778
vt 0.666667 0.888889
vt 0.666667 1.000000
vt 0.777778 0.444444
vt 0.777778 0.555556
vt 0.777778 0.666667
vt 0.777778 0.777778
vt 0.777778 0.888889
vt 0.777778 1.000000
vt 0.888889 0.333333
vt 0.888889 0.444444
vt 0.888889 0.555556
vt 0.888889 0.666667
vt 0.888889 0.777778
vt 0.888889 0.888889
vt 0.888889 1.000000
vt 1.000000 0.222222
vt 1.000000 0.333333
vt 1.000000 0.444444
vt 1.000000 0.555556
vt 1.000000 0.666667
vt 1.000000 0.777778
vt 1.000000 0.888889
vt 1.000000 1.000000
vt 0.111111 0.000000
vt 0.000000 0.111111
vt 0.000000 0.000000
vt 0.222222 0.000000
vt 0.111111 0.111111
vt 0.333333 0.000000
vt 0.222222 0.111111
vt 0.444444 0.000000
vt 0.333333 0.111111
vt 0.555556 0.000000
vt 0.444444 0.111111
vt 0.666667 0.000000
vt 0.555556 0.111111
vt 0.777778 0.000000
vt 0.666667 0.111111
vt 0.777778 0.111111
vt 0.000000 0.222222
vt 0.111111 0.222222
vt 0.000000 0.333333
vt 0.222222 0.222222
vt 0.111111 0.333333
vt 0.000000 0.444444
vt 0.333333 0.222222
vt 0.222222 0.333333
vt 0.111111 0.444444
vt 0.000000 0.555556
vt 0.444444 0.222222
vt 0.333333 0.333333
vt 0.222222 0.444444
vt 0.111111 0.555556
vt 0.000000 0.666667
vt 0.555556 0.222222
vt 0.444444 0.333333
vt 0.333333 0.444444
vt 0.222222 0.555556
vt 0.111111 0.666667
vt 0.000000 0.777778
vt 0.666667 0.222222
vt 0.555556 0.333333
vt 0.444444 0.444444
vt 0.333333 0.555556
vt 0.222222 0.666667
vt 0.111111 0.777778
vt 0.000000 0.888889
s 0
usemtl grass
f 2/1/1 44/2/1 20/3/1
f 2/1/1 21/4/1 44/2/1
f 37/5/1 36/6/1 3/7/1
f 38/8/1 45/9/1 37/5/1
f 39/10/1 46/11/1 38/8/1
f 40/12/1 48/13/1 39/10/1
f 41/14/1 51/15/1 40/12/1
f 42/16/1 55/17/1 41/14/1
f 43/18/1 60/19/1 42/16/1
f 44/2/1 66/20/1 43/18/1
f 37/5/1 45/9/1 36/6/1
f 45/9/1 35/21/1 36/6/1
f 38/8/1 46/11/1 45/9/1
f 46/11/1 47/22/1 45/9/1
f 45/9/1 47/22/1 35/21/1
f 47/22/1 34/23/1 35/21/1
f 39/10/1 48/13/1 46/11/1
f 48/13/1 49/24/1 46/11/1
f 46/11/1 49/24/1 47/22/1
f 49/24/1 50/25/1 47/22/1
f 47/22/1 50/25/1 34/23/1
f 50/25/1 33/26/1 34/23/1
f 40/12/1 51/15/1 48/13/1
f 51/15/1 52/27/1 48/13/1
f 48/13/1 52/27/1 49/24/1
f 52/27/1 53/28/1 49/24/1
f 49/24/1 53/28/1 50/25/1
f 53/28/1 54/29/1 50/25/1
f 50/25/1 54/29/1 33/26/1
f 54/29/1 32/30/1 33/26/1
f 41/14/1 55/17/1 51/15/1
f 55/17/1 56/31/1 51/15/1
f 51/15/1 56/31/1 52/27/1
f 56/31/1 57/32/1 52/27/1
f 52/27/1 57/32/1 53/28/1
f 57/32/1 58/33/1 53/28/1
f 53/28/1 58/33/1 54/29/1
f 58/33/1 59/34/1 54/29/1
f 54/29/1 59/34/1 32/30/1
f 59/34/1 31/35/1 32/30/1
f 42/16/1 60/19/1 55/17/1
f 60/19/1 61/36/1 55/17/1
f 55/17/1 61/36/1 56/31/1
f 61/36/1 62/37/1 56/31/1
f 56/31/1 62/37/1 57/32/1
f 62/37/1 63/38/1 57/32/1
f 57/32/1 63/38/1 58/33/1
f 63/38/1 64/39/1 58/33/1
f 58/33/1 64/39/1 59/34/1
f 64/39/1 65/40/1 59/34/1
f 59/34/1 65/40/1 31/35/1
f 65/40/1 30/41/1 31/35/1
f 43/18/1 66/20/1 60/19/1
f 66/20/1 67/42/1 60/19/1
f 60/19/1 67/42/1 61/36/1
f 67/42/1 68/43/1 61/36/1
f 61/36/1 68/43/1 62/37/1
f 68/43/1 69/44/1 62/37/1
f 62/37/1 69/44/1 63/38/1
f 69/44/1 70/45/1 63/38/1
f 63/38/1 70/45/1 64/39/1
f 70/45/1 71/46/1 64/39/1
f 64/39/1 71/46/1 65/40/1
f 71/46/1 72/47/1 65/40/1
f 65/40/1 72/47/1 30/41/1
f 72/47/1 29/48/1 30/41/1
f 44/2/1 21/4/1 66/20/1
f 21/4/1 22/49/1 66/20/1
f 66/20/1 22/49/1 67/42/1
f 22/49/1 23/50/1 67/42/1
f 67/42/1 23/50/1 68/43/1
f 23/50/1 24/51/1 68/43/1
f 68/43/1 24/51/1 69/44/1
f 24/51/1 25/52/1 69/44/1
f 69/44/1 25/52/1 70/45/1
f 25/52/1 26/53/1 70/45/1
f 70/45/1 26/53/1 71/46/1
f 26/53/1 27/54/1 71/46/1
f 71/46/1 27/54/1 72/47/1
f 27/54/1 28/55/1 72/47/1
f 72/47/1 28/55/1 29/48/1
f 28/55/1 4/56/1 29/48/1
f 13/57/1 12/58/1 1/59/1
f 14/60/1 73/61/1 13/57/1
f 15/62/1 74/63/1 14/60/1
f 16/64/1 76/65/1 15/62/1
f 17/66/1 79/67/1 16/64/1
f 18/68/1 83/69/1 17/66/1
f 19/70/1 88/71/1 18/68/1
f 20/3/1 94/72/1 19/70/1
f 13/57/1 73/61/1 12/58/1
f 73/61/1 11/73/1 12/58/1
f 14/60/1 74/63/1 73/61/1
f 74/63/1 75/74/1 73/61/1
f 73/61/1 75/74/1 11/73/1
f 75/74/1 10/75/1 11/73/1
f 15/62/1 76/65/1 74/63/1
f 76/65/1 77/76/1 74/63/1
f 74/63/1 77/76/1 75/74/1
f 77/76/1 78/77/1 75/74/1
f 75/74/1 78/77/1 10/75/1
f 78/77/1 9/78/1 10/75/1
f 16/64/1 79/67/1 76/65/1
f 79/67/1 80/79/1 76/65/1
f 76/65/1 80/79/1 77/76/1
f 80/79/1 81/80/1 77/76/1
f 77/76/1 81/80/1 78/77/1
f 81/80/1 82/81/1 78/77/1
f 78/77/1 82/81/1 9/78/1
f 82/81/1 8/82/1 9/78/1
f 17/66/1 83/69/1 79/67/1
f 83/69/1 84/83/1 79/67/1
f 79/67/1 84/83/1 80/79/1
f 84/83/1 85/84/1 80/79/1
f 80/79/1 85/84/1 81/80/1
f 85/84/1 86/85/1 81/80/1
f 81/80/1 86/85/1 82/81/1
f 86/85/1 87/86/1 82/81/1
f 82/81/1 87/86/1 8/82/1
f 87/86/1 7/87/1 8/82/1
f 18/68/1 88/71/1 83/69/1
f 88/71/1 89/88/1 83/69/1
f 83/69/1 89/88/1 84/83/1
f 89/88/1 90/89/1 84/83/1
f 84/83/1 90/89/1 85/84/1
f 90/89/1 91/90/1 85/84/1
f 85/84/1 91/90/1 86/85/1
f 91/90/1 92/91/1 86/85/1
f 86/85/1 92/91/1 87/86/1
f 92/91/1 93/92/1 87/86/1
f 87/86/1 93/92/1 7/87/1
f 93/92/1 6/93/1 7/87/1
f 19/70/1 94/72/1 88/71/1
f 94/72/1 95/94/1 88/71/1
f 88/71/1 95/94/1 89/88/1
f 95/94/1 96/95/1 89/88/1
f 89/88/1 96/95/1 90/89/1
f 96/95/1 97/96/1 90/89/1
f 90/89/1 97/96/1 91/90/1
f 97/96/1 98/97/1 91/90/1
f 91/90/1 98/97/1 92/91/1
f 98/97/1 99/98/1 92/91/1
f 92/91/1 99/98/1 93/92/1
f 99/98/1 100/99/1 93/92/1
f 93/92/1 100/99/1 6/93/1
f 100/99/1 5/100/1 6/93/1
f 20/3/1 44/2/1 94/72/1
f 44/2/1 43/18/1 94/72/1
f 94/72/1 43/18/1 95/94/1
f 43/18/1 42/16/1 95/94/1
f 95/94/1 42/16/1 96/95/1
f 42/16/1 41/14/1 96/95/1
f 96/95/1 41/14/1 97/96/1
f 41/14/1 40/12/1 97/96/1
f 97/96/1 40/12/1 98/97/1
f 40/12/1 39/10/1 98/97/1
f 98/97/1 39/10/1 99/98/1
f 39/10/1 38/8/1 99/98/1
f 99/98/1 38/8/1 100/99/1
f 38/8/1 37/5/1 100/99/1
f 100/99/1 37/5/1 5/100/1
f 37/5/1 3/7/1 5/100/1
