# Blender 4.1.0
# www.blender.org
mtllib path.mtl
o Plane.015
v -15.958363 0.000000 258.641907
v -11.712210 0.000000 249.588181
v -25.012102 0.000000 254.395767
v -20.765949 0.000000 245.342026
v 1.026245 0.000000 222.426956
v 5.272396 0.000000 213.373230
v -8.027493 0.000000 218.180817
v -3.781343 0.000000 209.127075
v -7.466061 0.000000 240.534439
v -3.219909 0.000000 231.480713
v -16.519800 0.000000 236.288300
v -12.273648 0.000000 227.234558
v -3.219908 0.000000 231.480698
v 1.026245 0.000000 222.426971
v -12.273647 0.000000 227.234558
v -8.027495 0.000000 218.180817
v -11.712212 0.000000 249.588181
v -7.466061 0.000000 240.534439
v -20.765951 0.000000 245.342026
v -16.519800 0.000000 236.288300
v 47.571636 -0.100000 123.181854
v 51.817791 -0.100000 114.128113
v 38.517902 -0.100000 118.935699
v 42.764050 -0.100000 109.881958
v 64.556244 -0.100000 86.966904
v 68.802399 -0.100000 77.913162
v 55.502506 -0.100000 82.720749
v 59.748661 -0.100000 73.667007
v 56.063946 -0.100000 105.074371
v 60.310093 -0.100000 96.020645
v 47.010204 -0.100000 100.828217
v 51.256351 -0.100000 91.774490
v 60.310093 -0.100000 96.020645
v 64.556244 -0.100000 86.966904
v 51.256351 -0.100000 91.774490
v 55.502506 -0.100000 82.720749
v 51.817791 -0.100000 114.128113
v 56.063946 -0.100000 105.074371
v 42.764050 -0.100000 109.881973
v 47.010204 -0.100000 100.828217
v 26.315304 0.000000 168.505066
v 30.561455 0.000000 159.451324
v 17.261562 0.000000 164.258911
v 21.507713 0.000000 155.205170
v 43.299911 0.000000 132.290115
v 47.546062 0.000000 123.236374
v 34.246170 0.000000 128.043961
v 38.492321 0.000000 118.990219
v 34.807610 0.000000 150.397583
v 39.053761 0.000000 141.343842
v 25.753868 0.000000 146.151428
v 30.000019 0.000000 137.097687
v 39.053761 0.000000 141.343842
v 43.299911 0.000000 132.290115
v 30.000019 0.000000 137.097687
v 34.246170 0.000000 128.043961
v 30.561455 0.000000 159.451324
v 34.807610 0.000000 150.397583
v 21.507713 0.000000 155.205170
v 25.753868 0.000000 146.151428
v 5.136230 0.000000 213.663559
v 9.382381 0.000000 204.609818
v -3.917508 0.000000 209.417404
v 0.328644 0.000000 200.363663
v 22.120838 0.000000 177.448608
v 26.366993 0.000000 168.394867
v 13.067097 0.000000 173.202454
v 17.313251 0.000000 164.148712
v 13.628532 0.000000 195.556091
v 17.874683 0.000000 186.502350
v 4.574795 0.000000 191.309937
v 8.820946 0.000000 182.256195
v 17.874687 0.000000 186.502350
v 22.120838 0.000000 177.448608
v 8.820946 0.000000 182.256195
v 13.067097 0.000000 173.202454
v 9.382381 0.000000 204.609833
v 13.628532 0.000000 195.556091
v 0.328640 0.000000 200.363678
v 4.574795 0.000000 191.309937
vn -0.0000 1.0000 -0.0000
vt 1.000000 0.000000
vt 0.000000 1.000000
vt 0.000000 0.000000
vt 1.000000 1.000000
s 0
usemtl path.033
f 2/1/1 3/2/1 1/3/1
f 2/1/1 4/4/1 3/2/1
usemtl path.034
f 6/1/1 7/2/1 5/3/1
f 6/1/1 8/4/1 7/2/1
usemtl path.035
f 10/1/1 11/2/1 9/3/1
f 10/1/1 12/4/1 11/2/1
usemtl path.036
f 14/1/1 15/2/1 13/3/1
f 14/1/1 16/4/1 15/2/1
usemtl path.037
f 18/1/1 19/2/1 17/3/1
f 18/1/1 20/4/1 19/2/1
usemtl path.017
f 22/1/1 23/2/1 21/3/1
f 22/1/1 24/4/1 23/2/1
usemtl path.018
f 26/1/1 27/2/1 25/3/1
f 26/1/1 28/4/1 27/2/1
usemtl path.019
f 30/1/1 31/2/1 29/3/1
f 30/1/1 32/4/1 31/2/1
usemtl path.020
f 34/1/1 35/2/1 33/3/1
f 34/1/1 36/4/1 35/2/1
usemtl path.021
f 37/3/1 40/4/1 39/2/1
f 37/3/1 38/1/1 40/4/1
usemtl path.022
f 42/1/1 43/2/1 41/3/1
f 42/1/1 44/4/1 43/2/1
usemtl path.023
f 46/1/1 47/2/1 45/3/1
f 46/1/1 48/4/1 47/2/1
usemtl path.024
f 50/1/1 51/2/1 49/3/1
f 50/1/1 52/4/1 51/2/1
usemtl path.025
f 54/1/1 55/2/1 53/3/1
f 54/1/1 56/4/1 55/2/1
usemtl path.026
f 58/1/1 59/2/1 57/3/1
f 58/1/1 60/4/1 59/2/1
usemtl path.027
f 62/1/1 63/2/1 61/3/1
f 62/1/1 64/4/1 63/2/1
usemtl path.028
f 66/1/1 67/2/1 65/3/1
f 66/1/1 68/4/1 67/2/1
usemtl path.029
f 70/1/1 71/2/1 69/3/1
f 70/1/1 72/4/1 71/2/1
usemtl path.030
f 74/1/1 75/2/1 73/3/1
f 74/1/1 76/4/1 75/2/1
usemtl path.031
f 78/1/1 79/2/1 77/3/1
f 78/1/1 80/4/1 79/2/1
